<svg xmlns="http://www.w3.org/2000/svg" version="1.1" xmlns:xlink="http://www.w3.org/1999/xlink" xmlns:svgjs="http://svgjs.dev/svgjs" width="2000" height="484" viewBox="0 0 2000 484"><g transform="matrix(1,0,0,1,-1.2121212121212466,0.18392028401510174)"><svg viewBox="0 0 396 96" data-background-color="#ffffff" preserveAspectRatio="xMidYMid meet" height="484" width="2000" xmlns="http://www.w3.org/2000/svg" xmlns:xlink="http://www.w3.org/1999/xlink"><defs></defs><g id="tight-bounds" transform="matrix(1,0,0,1,0.2400000000000091,-0.03648005633357343)"><svg viewBox="0 0 395.52 96.07296011266713" height="96.07296011266713" width="395.52"><g><svg viewBox="0 0 419.0210911109859 101.78144360000002" height="96.07296011266713" width="395.52"><g><svg viewBox="0 0 419.0210911109859 101.78144360000002" height="101.78144360000002" width="419.0210911109859"><g><svg viewBox="0 0 419.0210911109859 101.78144360000002" height="101.78144360000002" width="419.0210911109859"><g><svg viewBox="0 0 419.0210911109859 70.94930000000001" height="70.94930000000001" width="419.0210911109859"><g><svg><g></g><g></g></svg></g><g><svg><g><svg></svg></g><g></g></svg></g><g id="text-0"><svg viewBox="0 0 419.0210911109859 70.94930000000001" height="70.94930000000001" width="419.0210911109859"><g transform="matrix(1,0,0,1,0,13.949650000000002)"><svg width="122.90000000000003" viewBox="-2.7 -34.5 122.89 43.05" height="43.050000000000004" data-palette-color="#f0f1f6"><path d="M6.7 1Q6.7 4.15 5.73 6.05 4.75 7.95 3.15 7.95L3.15 7.95Q1.45 7.95 1.45 6.2L1.45 6.2 1.5 4.75Q1.5 3.7 0.95 3.1 0.4 2.5-0.6 2.5L-0.6 2.5Q-1.55 2.5-2.13 3.1-2.7 3.7-2.7 4.7L-2.7 4.7Q-2.7 6.35-1.15 7.45 0.4 8.55 2.75 8.55L2.75 8.55Q4.6 8.55 6.25 7.73 7.9 6.9 8.9 5.45L8.9 5.45Q9.8 4.15 10.18 2.27 10.55 0.4 10.55-2.85L10.55-2.85 10.55-33.7 14.65-34.1 14.65-34.5 2.6-34.5 2.6-34.1 6.7-33.7 6.7 1ZM43.3-31.45Q43.3-32.65 43-33.1 42.7-33.55 41.8-33.7L41.8-33.7 38.25-34.1 38.25-34.5 49.2-34.5 49.2-34.1 45.6-33.7Q44.7-33.55 44.4-33.1 44.1-32.65 44.1-31.45L44.1-31.45 44.1-12.25Q44.1-9.1 43.62-7 43.15-4.9 42.15-3.4L42.15-3.4Q40.8-1.45 38.45-0.33 36.1 0.8 33.25 0.8L33.25 0.8Q30.95 0.8 28.7 0.05 26.45-0.7 24.95-2L24.95-2Q23.4-3.35 22.75-5.45 22.1-7.55 22.1-11.25L22.1-11.25 22.1-33.7 18-34.1 18-34.5 30.3-34.5 30.3-34.1 25.95-33.7 25.95-9.6Q25.95-5.95 26.62-4 27.3-2.05 28.9-1.1L28.9-1.1Q29.75-0.6 31-0.3 32.25 0 33.6 0L33.6 0Q36.1 0 38.2-1 40.3-2 41.55-3.85L41.55-3.85Q42.5-5.25 42.9-7.13 43.3-9 43.3-12L43.3-12 43.3-31.45ZM73.7-34.5L85.65-34.5 85.65-34.1 82.05-33.7Q80.84-33.55 80.45-33.1 80.05-32.65 80.05-31.45L80.05-31.45 80.05 0.8 79.55 0.8 57.1-31.05 56.9-31.05 56.9-3.05Q56.9-1.85 57.2-1.38 57.5-0.9 58.4-0.8L58.4-0.8 61.95-0.4 61.95 0 51 0 51-0.4 54.6-0.8Q55.5-0.9 55.8-1.38 56.1-1.85 56.1-3.05L56.1-3.05 56.1-32.15 55.9-32.45Q55.2-33.45 54.57-33.77 53.95-34.1 52.75-34.1L52.75-34.1 51.9-34.1 51.9-34.5 59.35-34.5 79.05-6.9 79.25-6.9 79.25-31.45Q79.25-32.65 78.95-33.15 78.65-33.65 77.75-33.7L77.75-33.7 73.7-34.1 73.7-34.5ZM119.99-0.4L120.19-0.4 120.19 0 112.74 0 99.19-17.9 96.39-14.7 96.39-0.8 100.74-0.4 100.74 0 88.44 0 88.44-0.4 92.54-0.8 92.54-33.7 88.44-34.1 88.44-34.5 100.74-34.5 100.74-34.1 96.39-33.7 96.39-15.6 109.99-31.3Q110.79-32.25 110.79-32.85L110.79-32.85Q110.79-33.35 110.02-33.6 109.24-33.85 106.89-34.1L106.89-34.1 106.89-34.5 117.09-34.5 117.09-34.1Q114.19-33.6 113.17-33.15 112.14-32.7 110.99-31.4L110.99-31.4 101.84-20.9 116.29-2Q117.14-1.05 117.87-0.73 118.59-0.4 119.99-0.4L119.99-0.4Z" opacity="1" transform="matrix(1,0,0,1,0,0)" fill="#f0f1f6" class="undefined-dm-0"></path></svg></g><g><svg xmlns="http://www.w3.org/2000/svg" xmlns:xlink="http://www.w3.org/1999/xlink" version="1.1" x="139.65070000000003" y="0" viewBox="4.106 5.67 88.623 88.66" enable-background="new 4.106 5.67 88.622 88.66" xml:space="preserve" width="70.91969111098581" height="70.94930000000001" class="icon-fi-0" data-fill-palette-color="accent" id="fi-0"><path fill="#3ad1d1" d="M48.417 5.67c-6.721 0-13.088 1.505-18.795 4.184 0.004-0.022 0.014-0.041 0.016-0.064-0.576 0.268-1.146 0.548-1.711 0.841 0.029 0.009 0.063 0.012 0.094 0.019-0.104 0.055-0.211 0.106-0.314 0.162-0.01-0.017-0.024-0.027-0.032-0.044-0.327 0.172-0.653 0.343-0.974 0.523 0.032 0.006 0.061 0.015 0.092 0.021-0.342 0.191-0.682 0.385-1.018 0.585-0.018-0.014-0.036-0.022-0.053-0.037 0.191-0.112 0.379-0.228 0.57-0.337-0.193 0.112-0.389 0.223-0.581 0.337 0.001 0.001 0.003 0.002 0.004 0.003-0.08 0.048-0.161 0.096-0.241 0.144 0.037-0.004 0.057 0.01 0.089 0.013-0.173 0.104-0.341 0.214-0.512 0.32 0.012-0.035 0.019-0.066 0.032-0.102 0 0-0.001 0-0.002 0.001 0-0.001 0.001-0.002 0.001-0.003-0.031 0.02-0.063 0.041-0.097 0.061 0.019-0.012 0.037-0.022 0.057-0.033-0.068 0.043-0.138 0.086-0.207 0.129 0.021-0.014 0.041-0.027 0.062-0.04-0.194 0.12-0.39 0.241-0.582 0.365 0.128-0.082 0.258-0.161 0.387-0.24-0.129 0.082-0.256 0.166-0.385 0.25 0 0.024 0.005 0.053 0.006 0.078-0.012 0.008-0.024 0.016-0.037 0.024-0.012-0.019-0.02-0.041-0.035-0.058 0.021-0.014 0.041-0.028 0.062-0.042 0.002-0.004 0-0.008 0-0.011-0.023 0.015-0.047 0.031-0.071 0.047 0.003 0.001 0.004 0.005 0.005 0.008-1.219 0.79-2.399 1.634-3.532 2.538 0.009 0.026 0.024 0.05 0.034 0.074C10.608 23.51 4.106 35.992 4.106 50c0 24.482 19.839 44.33 44.311 44.33 24.472 0 44.312-19.848 44.312-44.33C92.729 25.517 72.889 5.67 48.417 5.67zM80.229 20.456c0.045 0.075 0.098 0.142 0.139 0.219-1.158 0.338-1.061-0.576-2.047-0.408 0.414 0.715 0.709 2.192 1.637 1.227 0.082 0.546 0.561 0.174 0.996-0.234 6.285 7.116 10.279 16.303 10.814 26.412-0.531 0-1.061 0-1.588 0 2.58 4.011-2.924 5.74-5.316 7.363 0.729 1.693 2.34-0.518 3.271 0.408-0.402 4.1-3.299 5.697-5.316 8.182 0.102 3.109 0.217 3.945 0 6.953-4.158 2.84-4.428 11.6-11.043 10.633-1.096-2.994-1.139-7.043-2.455-9.816 2.725-3.924-1.109-6.549-0.818-11.451-0.549-0.678-2.146-0.305-2.045-1.637-2.551 0.881-4.385 0.521-6.953 0.818-1.842-1.021-2.58-3.146-4.09-4.498 1.379-3.963-0.869-8.164 3.682-9.817-0.219-4.865 7.52-5.636 10.633-4.498 0 0.545 0 1.09 0 1.635 1.605 0.306 2.367 1.453 3.682 2.045-0.068-1.024 0.631-1.281 1.229-1.637 1.248 0.793 0.939 1.918 2.863 1.229 0.719 0.234 2.402-0.495 2.453 0.409 0.607-0.347 0.592-1.317 0.818-2.046-0.375-1.396-2.518-1.027-3.684-1.635-0.559-0.522-0.559-1.932 0-2.455-2.604-0.19-0.42 1.975-2.043 2.455-0.273 0-0.545 0-0.818 0 0.352-1.306-0.643-1.265-0.818-2.045-1.217-0.101-1.553 2.771-2.861 1.227 2.91-0.479-1.648-4.118-2.045-2.454-0.07-0.612 0.146-1.509-0.41-1.636-1.453 0.453-2.395 1.422-3.682 2.045 0 0.545 0 1.091 0 1.636-0.361 0.183-0.73 0.36-0.816 0.817-1.229 0-2.455 0-3.684 0-0.02-0.522-0.521-0.566-0.408-1.229 0.602-0.898-0.047-3.047 1.229-3.271 1.176-0.57 2.078 1.115 2.453 0 0.139 0 0.271 0 0.41 0 0.182-1.543-0.809-1.92-1.229-2.862 0.045-0.772 1.354-0.284 1.229-1.228 3.486-0.193 3.588-3.774 5.727-5.316-0.344 0.475-0.541 1.096-0.408 2.044 1.506 0.376 0.742-2.157 0.408-2.454-0.949-0.13-1.57 0.065-2.045 0.41-0.568-0.524-0.25-1.931-0.818-2.456 2.586-2.321 3.361-6.455 7.771-6.952 1.316 0.323 2.502 0.776 3.52 1.399C78.609 18.774 79.434 19.6 80.229 20.456zM61.955 25.176c2.131 0.459 1.541 3.642 3.273 4.499 0 0.271 0 0.545 0 0.818-0.984-0.167-0.889 0.748-2.045 0.41-0.773-0.092-0.902 0.459-1.635 0.408C63.203 29.135 61.076 27.336 61.955 25.176zM61.549 30.083c-0.684 0-1.363 0-2.047 0-0.162-1.525 0.328-2.4 1.637-2.454C61.611 28.113 61.602 29.076 61.549 30.083zM55.004 21.495c-0.361-0.864-1.246-1.209-1.229-2.454 1.637 0.401 2.457 0.401 4.092 0 0.078 0.331 0.412 0.408 0.408 0.817C58.219 21.438 56.678 21.534 55.004 21.495zM52.549 23.949c-0.627 1.69-2.622 2.012-4.089 2.862-0.464-0.076-0.229-0.41 0-0.408-0.062-0.756-1.385-0.252-1.637-0.818C46.412 20.586 52.996 19.426 52.549 23.949zM83.635 75.076c-1.025-3.143 1.238-4.395 2.453-6.953 1.209 0.971-0.492 2.475-0.408 3.68-0.441 0.758-0.992 1.41-1.209 2.396-0.016 0.021-0.029 0.045-0.045 0.068C83.99 74.363 83.811 74.717 83.635 75.076zM55.08 7.075c-0.027 0.035-0.039 0.062-0.074 0.1 0.258 0.053 0.564 0.056 0.885 0.045 0.686 0.119 1.365 0.253 2.039 0.404-0.66 0.301-0.838 1.085-1.693 1.187-0.297 1.25 0.416 1.491 0.406 2.454-0.703 0.161-1.049-0.606-1.227 0 1.404 1.81-2.008 3.385 0 4.908-2.979 1.521-7.176 1.823-8.999 4.499-0.884 1.023-1.29 2.527-2.454 3.271-2.918-0.84-3.482-5.656-2.604-7.504 0.084-0.061 0.144-0.146 0.146-0.263-0.053 0.079-0.101 0.167-0.146 0.262-0.215 0.151-0.596 0.103-0.668-0.266 1.918-5.429-4.68-3.837-5.727-6.953 0.682-0.545 2.604 0.149 2.454-1.227C37.36 8 37.309 8.015 37.25 8.022c3.563-0.946 7.304-1.457 11.164-1.457C50.682 6.565 52.906 6.74 55.08 7.075zM28.014 11.658c0.828 0.27 1.514 0.427 2.448-0.388-0.534-0.032-1.171 0.038-1.708 0.009 1.929-0.982 3.939-1.824 6.021-2.513-1.586 0.821-2.635 2.179-3.491 3.729-1.911 0.186-3.4 0.375-4.607-0.085C27.12 12.152 27.563 11.898 28.014 11.658zM26.051 12.769c0.092 0.197 0.266 0.312 0.733 0.133-0.435 0.927-1.24 1.486-2.454 1.636 0.304-0.4 0.436-0.716 0.504-0.999C25.237 13.278 25.639 13.016 26.051 12.769zM21.321 16.074c0.049 0.034 0.096 0.071 0.146 0.101-0.097 1.128-1.52 0.934-2.044 1.637 2.743 0.813 2.856-2.451 4.499-0.41 0.168-0.984-0.747-0.889-0.408-2.043 0.522-0.022 0.566-0.525 1.228-0.409 0.2 2.331 1.526 1.28 2.044 2.862 0.087-0.459 0.454-0.638 0.818-0.817 0.435-1.525-1.535-0.647-1.227-2.045 0.057-2.262 3.453-1.182 4.908-2.045 0.007 0.676 1.134 0.229 1.227 0.818-0.537-0.053-2.959-0.062-1.636 0.409 4.175-0.328 4.11 2.779 6.544 4.909-0.804-0.123-0.812 0.552-1.229 0.816-0.543 0.062-1.233-1.662-1.635-0.407 0.895 0.06 0.879 1.03 0.817 2.045-2.028-0.667-0.231 0.049-1.228 0.817-1.527-0.791-2.703-1.933-4.5-2.455 1.004-0.358 2.358-0.367 2.455-1.635 0.304-1.26-1.125-0.785-0.818-2.045-0.6 0.004-3.348-0.154-2.045 0.41 0.336 1.834-1.174 1.826-1.637 2.863 0.6 0.355 1.297 0.613 1.228 1.636-0.329-0.216-0.664-0.426-1.228-0.409-0.515 0.102-0.412 0.814 0 0.818-0.074 0.691-1.943-0.189-1.637-1.227-1.938 0.65-2.891 2.289-4.089 3.681 0.351 1.558 1.907 1.911 3.271 2.454 0.33 0.217 0.666 0.427 1.229 0.408-0.296 1.251 0.418 1.49 0.408 2.454 1.395-3.288 2.595-2.441 2.455-7.771 0.348 0.074 0.386-0.16 0.408-0.409 0.402-0.035 0.972 1.08 2.455 0.817 1.039 0.324 0.221 2.506 1.635 2.455 1.324 0.506 0.312-1.323 1.637-0.819 1.281 3.818 3.506 5.762 4.09 9.408-1.25 0.296-1.49-0.418-2.453-0.408-1.43 0.365-0.699-1.334-0.41-1.637 0.588-0.229 0.998-0.639 1.228-1.228-1.542 0.388-2.771 2.538-4.09 0.818 0.338 1.155-0.576 1.06-0.409 2.045-0.076 0.348 0.159 0.386 0.409 0.409 0.317 0.091 0.808 0.01 0.817 0.408 0 0.138 0 0.272 0 0.41-1.945 1.258-7.017 2.709-7.771 7.362-1.199 0.026-1.519 0.935-2.044 1.636-0.867 0.365 0.809 2.861-0.41 3.682-0.989-0.512-1.322-1.678-1.637-2.863-3.719-2.158-10.463 4.661-4.09 6.136 0.137 0 0.273 0 0.41 0-0.148-1.297 2.244-1.832 2.452-0.409-0.606 0.348-0.879 1.028-0.817 2.043-0.069 0.889 1.451 0.188 2.045 0.41-0.115 1.812-0.868 3.379 1.227 3.68 0.318 0.092 0.809 0.012 0.819 0.41 1.606-0.166 1.747-1.797 3.272-2.045 0.916 0.85 2.641 1.199 5.316 1.227 0.574 2.562 3.68 2.592 5.316 4.092 0 0.68 0 1.361 0 2.045 2.922 0.76 5.078 2.285 7.771 3.27-0.385 3.844-2.917 5.537-2.861 9.818-1.1 0.539-2.176 1.098-3.273 1.635-0.379 2.689-2.146 5.939-4.5 5.316-0.167 0.986 0.748 0.889 0.408 2.047-4.189 1.184-3.257 3.732-3.928 7.059-1.065-0.428-2.11-0.893-3.133-1.4-1.623-3.189 1.092-9.072 0.112-14.887-0.763-4.531-7.209-7.143-6.065-12.537 0.729-0.889 1.577-1.658 2.021-2.832-2.943-4.334-8.721-5.838-12.94-8.896 0.118-2.275-0.71-3.604-2.022-4.448 0.068 1.146 0.742 1.685 0.811 2.83-2.847-2.78-3.883-7.165-4.004-11.327C9.67 28.554 14.706 21.369 21.321 16.074zM29.645 49.717c0.141 1.755-1.49 1.105-2.453 0.818C27.567 49.82 28.469 49.631 29.645 49.717zM22.283 48.08c1.108-1.787 3.901 0.715 4.909 1.638C24.965 49.761 24.634 47.909 22.283 48.08z" data-fill-palette-color="accent"></path></svg></g><g transform="matrix(1,0,0,1,227.32109111098583,13.149649999999994)"><svg width="191.70000000000005" viewBox="2 -35.3 191.69 36.099999999999994" height="36.10000000000001" data-palette-color="#f0f1f6"><path d="M19.1-18.2Q23.45-17.6 25.75-15.35 28.05-13.1 28.05-9.45L28.05-9.45Q28.05-5.45 25.28-2.73 22.5 0 16.75 0L16.75 0 2 0 2-0.4 6.1-0.8 6.1-33.7 2-34.1 2-34.5 14.45-34.5Q20.35-34.5 23.45-32.4 26.55-30.3 26.55-26.3L26.55-26.3Q26.55-23.1 24.6-21 22.65-18.9 19.1-18.4L19.1-18.4 19.1-18.2ZM14.3-33.9L9.95-33.9 9.95-18.55 15.75-18.55Q19.1-18.55 20.58-20.5 22.05-22.45 22.05-26.3L22.05-26.3Q22.05-33.9 14.3-33.9L14.3-33.9ZM15.55-0.6Q23.3-0.6 23.3-9.3L23.3-9.3Q23.3-13.85 21.35-15.9 19.4-17.95 15.55-17.95L15.55-17.95 9.95-17.95 9.95-0.6 15.55-0.6ZM62.4-0.4L63.1-0.4 63.1 0 57.95 0Q56.75 0 56.15-0.35 55.55-0.7 54.9-1.7L54.9-1.7 47.25-14.05Q46.55-15.2 46.07-15.48 45.6-15.75 44.4-15.75L44.4-15.75 40.7-15.75 40.7-0.8 45.05-0.4 45.05 0 32.75 0 32.75-0.4 36.85-0.8 36.85-33.7 32.75-34.1 32.75-34.5 45.4-34.5Q51.3-34.5 54.4-32.13 57.5-29.75 57.5-25.25L57.5-25.25Q57.5-21.75 55.6-19.5 53.7-17.25 50.1-16.4L50.1-16.4 50.15-16.4 59.3-2.1Q59.95-1.1 60.57-0.75 61.2-0.4 62.4-0.4L62.4-0.4ZM45.25-33.9L40.7-33.9 40.7-16.5 45.25-16.5Q49.25-16.5 51.17-18.63 53.1-20.75 53.1-25.15L53.1-25.15Q53.1-29.6 51.15-31.75 49.2-33.9 45.25-33.9L45.25-33.9ZM79.8-35.3Q84.15-35.3 87.77-32.9 91.4-30.5 93.47-26.38 95.55-22.25 95.55-17.25L95.55-17.25Q95.55-12.25 93.47-8.13 91.4-4 87.77-1.6 84.15 0.8 79.8 0.8L79.8 0.8Q75.45 0.8 71.82-1.6 68.2-4 66.12-8.13 64.05-12.25 64.05-17.25L64.05-17.25Q64.05-22.25 66.12-26.38 68.2-30.5 71.82-32.9 75.45-35.3 79.8-35.3L79.8-35.3ZM68.85-17.25Q68.85-8.9 71.7-4.38 74.55 0.15 79.8 0.15L79.8 0.15Q85.05 0.15 87.9-4.38 90.75-8.9 90.75-17.25L90.75-17.25Q90.75-25.6 87.9-30.15 85.05-34.7 79.8-34.7L79.8-34.7Q74.55-34.7 71.7-30.15 68.85-25.6 68.85-17.25L68.85-17.25ZM131.39-0.4L131.59-0.4 131.59 0 124.14 0 110.59-17.9 107.79-14.7 107.79-0.8 112.14-0.4 112.14 0 99.84 0 99.84-0.4 103.94-0.8 103.94-33.7 99.84-34.1 99.84-34.5 112.14-34.5 112.14-34.1 107.79-33.7 107.79-15.6 121.39-31.3Q122.19-32.25 122.19-32.85L122.19-32.85Q122.19-33.35 121.42-33.6 120.64-33.85 118.29-34.1L118.29-34.1 118.29-34.5 128.49-34.5 128.49-34.1Q125.59-33.6 124.57-33.15 123.54-32.7 122.39-31.4L122.39-31.4 113.24-20.9 127.69-2Q128.54-1.05 129.27-0.73 129.99-0.4 131.39-0.4L131.39-0.4ZM157.84-10.55L158.39-10.5 157.14 0 132.64 0 132.64-0.4 136.74-0.8 136.74-33.7 132.64-34.1 132.64-34.5 157.19-34.5 157.89-25.1 157.39-25.05 154.59-32.05Q154.14-33.2 153.62-33.55 153.09-33.9 151.89-33.9L151.89-33.9 140.59-33.9 140.59-18.55 147.99-18.55Q149.19-18.55 149.69-18.95 150.19-19.35 150.39-20.5L150.39-20.5 151.24-24.55 151.84-24.55 151.84-11.75 151.24-11.75 150.39-15.8Q150.19-16.95 149.69-17.35 149.19-17.75 147.99-17.75L147.99-17.75 140.59-17.75 140.59-0.6 151.79-0.6Q152.99-0.6 153.54-0.98 154.09-1.35 154.54-2.45L154.54-2.45 157.84-10.55ZM192.99-0.4L193.69-0.4 193.69 0 188.54 0Q187.34 0 186.74-0.35 186.14-0.7 185.49-1.7L185.49-1.7 177.84-14.05Q177.14-15.2 176.66-15.48 176.19-15.75 174.99-15.75L174.99-15.75 171.29-15.75 171.29-0.8 175.64-0.4 175.64 0 163.34 0 163.34-0.4 167.44-0.8 167.44-33.7 163.34-34.1 163.34-34.5 175.99-34.5Q181.89-34.5 184.99-32.13 188.09-29.75 188.09-25.25L188.09-25.25Q188.09-21.75 186.19-19.5 184.29-17.25 180.69-16.4L180.69-16.4 180.74-16.4 189.89-2.1Q190.54-1.1 191.16-0.75 191.79-0.4 192.99-0.4L192.99-0.4ZM175.84-33.9L171.29-33.9 171.29-16.5 175.84-16.5Q179.84-16.5 181.76-18.63 183.69-20.75 183.69-25.15L183.69-25.15Q183.69-29.6 181.74-31.75 179.79-33.9 175.84-33.9L175.84-33.9Z" opacity="1" transform="matrix(1,0,0,1,0,0)" fill="#f0f1f6" class="undefined-dm-1"></path></svg></g></svg></g></svg></g><g transform="matrix(1,0,0,1,100.85566669951743,79.47164360000001)"><svg viewBox="0 0 217.30975771195102 22.309800000000006" height="22.309800000000006" width="217.30975771195102"><g transform="matrix(1,0,0,1,0,0)"><svg width="217.30975771195102" viewBox="1.6 -38.1 476.75 48.95" height="22.309800000000006" data-palette-color="#e1e9ec"><path d="M14-36.9L14-36.9Q16.5-36.9 18.88-36.2 21.25-35.5 23.4-34.2L23.4-34.2 21.1-30.85Q19.55-32 17.73-32.68 15.9-33.35 13.95-33.35L13.95-33.35Q11.3-33.35 9.45-32.02 7.6-30.7 7.6-27.8L7.6-27.8Q7.6-26.2 8.47-25.08 9.35-23.95 10.8-23.1 12.25-22.25 13.95-21.45L13.95-21.45Q15.7-20.65 17.53-19.7 19.35-18.75 20.88-17.48 22.4-16.2 23.33-14.38 24.25-12.55 24.25-9.9L24.25-9.9Q24.25-6.3 22.5-3.98 20.75-1.65 17.9-0.53 15.05 0.6 11.75 0.6L11.75 0.6Q9.05 0.6 6.53-0.13 4-0.85 1.6-2.1L1.6-2.1 3.4-6.2Q5.05-4.8 7.4-3.9 9.75-3 11.9-3L11.9-3Q13.55-3 15.25-3.63 16.95-4.25 18.1-5.65 19.25-7.05 19.25-9.25L19.25-9.25Q19.25-11.45 18.2-12.88 17.15-14.3 15.45-15.28 13.75-16.25 11.85-17.15L11.85-17.15Q10.2-17.95 8.55-18.8 6.9-19.65 5.55-20.8 4.2-21.95 3.4-23.55 2.6-25.15 2.6-27.4L2.6-27.4Q2.6-30.55 4.28-32.65 5.95-34.75 8.58-35.83 11.2-36.9 14-36.9ZM38.45-25.45L38.45-25.45Q42.4-25.45 44.4-23.3 46.4-21.15 46.4-17.25L46.4-17.25 46.4-4.8Q46.4-3.75 46.8-3.38 47.2-3 47.75-3L47.75-3Q48.2-3 48.7-3.13 49.2-3.25 49.65-3.45L49.65-3.45 50.55-0.75Q49.75-0.3 48.52 0.08 47.3 0.45 46 0.45L46 0.45Q44.7 0.45 43.65-0.28 42.6-1 42.35-2.95L42.35-2.95Q40.9-1.4 38.95-0.43 37 0.55 34.85 0.55L34.85 0.55Q31.9 0.55 29.95-1.2 28-2.95 28-6L28-6Q28-8.85 29.37-10.55 30.75-12.25 32.95-13.1 35.15-13.95 37.62-14.25 40.1-14.55 42.25-14.55L42.25-14.55 42.25-17.2Q42.25-19.3 41.4-20.75 40.55-22.2 38.1-22.2L38.1-22.2Q36.2-22.2 34.45-21.45 32.7-20.7 30.95-19.25L30.95-19.25 28.9-22.2Q30.95-23.85 33.4-24.65 35.85-25.45 38.45-25.45ZM42.25-9.7L42.25-11.3Q40.9-11.3 39.2-11.18 37.5-11.05 35.9-10.58 34.3-10.1 33.27-9.05 32.25-8 32.25-6.15L32.25-6.15Q32.25-4.5 33.37-3.73 34.5-2.95 36.2-2.95L36.2-2.95Q38-2.95 39.35-3.95 40.7-4.95 41.47-6.5 42.25-8.05 42.25-9.7L42.25-9.7ZM50.1-24.85L54.5-24.85 59.9-9.45Q60.25-8.5 60.55-7.6 60.85-6.7 61.15-5.45L61.15-5.45Q61.45-6.65 61.72-7.53 62-8.4 62.3-9.25L62.3-9.25 67.75-24.85 71.65-24.85 62.75 0.3 58.95 0.3 50.1-24.85ZM84.99-25.45L84.99-25.45Q87.99-25.45 90.04-24.23 92.09-23 93.12-20.83 94.14-18.65 94.14-15.75L94.14-15.75Q94.14-15.05 94.07-14.33 93.99-13.6 93.89-12.8L93.89-12.8 78.09-12.8Q78.09-8.05 80.19-5.45 82.29-2.85 85.79-2.85L85.79-2.85Q87.24-2.85 88.82-3.3 90.39-3.75 92.09-4.65L92.09-4.65 93.64-2.15Q91.89-0.75 89.69-0.05 87.49 0.65 85.24 0.65L85.24 0.65Q81.34 0.65 78.77-1.2 76.19-3.05 74.94-6 73.69-8.95 73.69-12.15L73.69-12.15Q73.69-14.65 74.39-17 75.09-19.35 76.52-21.28 77.94-23.2 80.04-24.33 82.14-25.45 84.99-25.45ZM84.59-22.3L84.59-22.3Q82.89-22.3 81.59-21.35 80.29-20.4 79.49-18.93 78.69-17.45 78.39-15.9L78.39-15.9 89.79-15.9Q89.84-18 89.22-19.43 88.59-20.85 87.42-21.58 86.24-22.3 84.59-22.3ZM111.39-36.4L118.14-36.4 126.99-12.75Q127.44-11.5 127.86-10.3 128.29-9.1 128.74-7.55L128.74-7.55Q129.14-9.05 129.54-10.23 129.94-11.4 130.39-12.6L130.39-12.6 139.19-36.4 145.24-36.4 145.24 0 140.64 0 140.64-26.35Q140.64-27.25 140.69-28.1 140.74-28.95 140.79-30L140.79-30Q140.49-29.2 140.14-28.35 139.79-27.5 139.49-26.65L139.49-26.65 129.69 0.05 126.89 0.05 116.99-26.9Q116.74-27.65 116.39-28.48 116.04-29.3 115.79-30L115.79-30Q115.89-29.05 115.91-28.25 115.94-27.45 115.94-26.6L115.94-26.6 115.94 0 112.14 0 112.14-33.1 111.39-36.4ZM162.84 0.65L162.84 0.65Q159.19 0.65 156.71-1.18 154.24-3 153.01-5.95 151.79-8.9 151.79-12.25L151.79-12.25Q151.79-15.6 153.11-18.63 154.44-21.65 156.99-23.55 159.54-25.45 163.14-25.45L163.14-25.45Q166.84-25.45 169.31-23.65 171.79-21.85 173.01-18.9 174.24-15.95 174.24-12.55L174.24-12.55Q174.24-9.15 172.94-6.13 171.64-3.1 169.09-1.23 166.54 0.65 162.84 0.65ZM162.89-2.5L162.89-2.5Q164.84-2.5 166.16-3.43 167.49-4.35 168.31-5.85 169.14-7.35 169.49-9.08 169.84-10.8 169.84-12.4L169.84-12.4Q169.84-14.05 169.51-15.78 169.19-17.5 168.44-18.98 167.69-20.45 166.36-21.38 165.04-22.3 163.09-22.3L163.09-22.3Q161.14-22.3 159.81-21.38 158.49-20.45 157.69-18.95 156.89-17.45 156.54-15.73 156.19-14 156.19-12.4L156.19-12.4Q156.19-10.85 156.54-9.13 156.89-7.4 157.66-5.9 158.44-4.4 159.74-3.45 161.04-2.5 162.89-2.5ZM178.43-24.65L182.98-25.25Q183.33-24.4 183.58-23.5 183.83-22.6 183.93-21.7L183.93-21.7Q185.43-23.2 187.48-24.33 189.53-25.45 191.68-25.45L191.68-25.45Q194.43-25.45 196.11-24.3 197.78-23.15 198.53-21.18 199.28-19.2 199.28-16.6L199.28-16.6 199.28 0 195.18 0 195.18-15.25Q195.18-16.8 194.96-18.3 194.73-19.8 193.86-20.78 192.98-21.75 190.98-21.75L190.98-21.75Q189.78-21.75 188.53-21.28 187.28-20.8 186.18-20.05 185.08-19.3 184.18-18.45L184.18-18.45 184.18 0 180.08 0 180.08-17.6Q180.08-18.6 179.93-19.93 179.78-21.25 179.43-22.53 179.08-23.8 178.43-24.65L178.43-24.65ZM216.93-25.45L216.93-25.45Q219.93-25.45 221.98-24.23 224.03-23 225.06-20.83 226.08-18.65 226.08-15.75L226.08-15.75Q226.08-15.05 226.01-14.33 225.93-13.6 225.83-12.8L225.83-12.8 210.03-12.8Q210.03-8.05 212.13-5.45 214.23-2.85 217.73-2.85L217.73-2.85Q219.18-2.85 220.76-3.3 222.33-3.75 224.03-4.65L224.03-4.65 225.58-2.15Q223.83-0.75 221.63-0.05 219.43 0.65 217.18 0.65L217.18 0.65Q213.28 0.65 210.71-1.2 208.13-3.05 206.88-6 205.63-8.95 205.63-12.15L205.63-12.15Q205.63-14.65 206.33-17 207.03-19.35 208.46-21.28 209.88-23.2 211.98-24.33 214.08-25.45 216.93-25.45ZM216.53-22.3L216.53-22.3Q214.83-22.3 213.53-21.35 212.23-20.4 211.43-18.93 210.63-17.45 210.33-15.9L210.33-15.9 221.73-15.9Q221.78-18 221.16-19.43 220.53-20.85 219.36-21.58 218.18-22.3 216.53-22.3ZM228.73-24.85L233.23-24.85Q234.33-21.75 235.4-18.65 236.48-15.55 237.58-12.3L237.58-12.3Q238.13-10.6 238.7-8.88 239.28-7.15 239.83-5.45L239.83-5.45Q240.38-7.2 240.95-8.9 241.53-10.6 242.08-12.3L242.08-12.3Q243.18-15.55 244.25-18.65 245.33-21.75 246.43-24.85L246.43-24.85 250.33-24.85 241.53 0.1Q240.98 1.65 240.13 3.53 239.28 5.4 238.13 7.05 236.98 8.7 235.43 9.78 233.88 10.85 231.93 10.85L231.93 10.85 230.03 10.85 230.03 7.5Q230.18 7.5 230.3 7.5 230.43 7.5 230.58 7.5L230.58 7.5Q232.68 7.5 234.05 6.25 235.43 5 236.33 3.23 237.23 1.45 237.83-0.2L237.83-0.2 228.73-24.85ZM274.42-36.9L274.42-36.9Q276.92-36.9 279.3-36.2 281.67-35.5 283.82-34.2L283.82-34.2 281.52-30.85Q279.97-32 278.15-32.68 276.32-33.35 274.37-33.35L274.37-33.35Q271.72-33.35 269.87-32.02 268.02-30.7 268.02-27.8L268.02-27.8Q268.02-26.2 268.9-25.08 269.77-23.95 271.22-23.1 272.67-22.25 274.37-21.45L274.37-21.45Q276.12-20.65 277.95-19.7 279.77-18.75 281.3-17.48 282.82-16.2 283.75-14.38 284.67-12.55 284.67-9.9L284.67-9.9Q284.67-6.3 282.92-3.98 281.17-1.65 278.32-0.53 275.47 0.6 272.17 0.6L272.17 0.6Q269.47 0.6 266.95-0.13 264.42-0.85 262.02-2.1L262.02-2.1 263.82-6.2Q265.47-4.8 267.82-3.9 270.17-3 272.32-3L272.32-3Q273.97-3 275.67-3.63 277.37-4.25 278.52-5.65 279.67-7.05 279.67-9.25L279.67-9.25Q279.67-11.45 278.62-12.88 277.57-14.3 275.87-15.28 274.17-16.25 272.27-17.15L272.27-17.15Q270.62-17.95 268.97-18.8 267.32-19.65 265.97-20.8 264.62-21.95 263.82-23.55 263.02-25.15 263.02-27.4L263.02-27.4Q263.02-30.55 264.7-32.65 266.37-34.75 269-35.83 271.62-36.9 274.42-36.9ZM298.87-25.45L298.87-25.45Q302.82-25.45 304.82-23.3 306.82-21.15 306.82-17.25L306.82-17.25 306.82-4.8Q306.82-3.75 307.22-3.38 307.62-3 308.17-3L308.17-3Q308.62-3 309.12-3.13 309.62-3.25 310.07-3.45L310.07-3.45 310.97-0.75Q310.17-0.3 308.95 0.08 307.72 0.45 306.42 0.45L306.42 0.45Q305.12 0.45 304.07-0.28 303.02-1 302.77-2.95L302.77-2.95Q301.32-1.4 299.37-0.43 297.42 0.55 295.27 0.55L295.27 0.55Q292.32 0.55 290.37-1.2 288.42-2.95 288.42-6L288.42-6Q288.42-8.85 289.8-10.55 291.17-12.25 293.37-13.1 295.57-13.95 298.05-14.25 300.52-14.55 302.67-14.55L302.67-14.55 302.67-17.2Q302.67-19.3 301.82-20.75 300.97-22.2 298.52-22.2L298.52-22.2Q296.62-22.2 294.87-21.45 293.12-20.7 291.37-19.25L291.37-19.25 289.32-22.2Q291.37-23.85 293.82-24.65 296.27-25.45 298.87-25.45ZM302.67-9.7L302.67-11.3Q301.32-11.3 299.62-11.18 297.92-11.05 296.32-10.58 294.72-10.1 293.7-9.05 292.67-8 292.67-6.15L292.67-6.15Q292.67-4.5 293.8-3.73 294.92-2.95 296.62-2.95L296.62-2.95Q298.42-2.95 299.77-3.95 301.12-4.95 301.9-6.5 302.67-8.05 302.67-9.7L302.67-9.7ZM310.52-24.85L314.92-24.85 320.32-9.45Q320.67-8.5 320.97-7.6 321.27-6.7 321.57-5.45L321.57-5.45Q321.87-6.65 322.14-7.53 322.42-8.4 322.72-9.25L322.72-9.25 328.17-24.85 332.07-24.85 323.17 0.3 319.37 0.3 310.52-24.85ZM345.42-25.45L345.42-25.45Q348.42-25.45 350.47-24.23 352.52-23 353.54-20.83 354.57-18.65 354.57-15.75L354.57-15.75Q354.57-15.05 354.49-14.33 354.42-13.6 354.32-12.8L354.32-12.8 338.52-12.8Q338.52-8.05 340.62-5.45 342.72-2.85 346.22-2.85L346.22-2.85Q347.67-2.85 349.24-3.3 350.82-3.75 352.52-4.65L352.52-4.65 354.07-2.15Q352.32-0.75 350.12-0.05 347.92 0.65 345.67 0.65L345.67 0.65Q341.77 0.65 339.19-1.2 336.62-3.05 335.37-6 334.12-8.95 334.12-12.15L334.12-12.15Q334.12-14.65 334.82-17 335.52-19.35 336.94-21.28 338.37-23.2 340.47-24.33 342.57-25.45 345.42-25.45ZM345.02-22.3L345.02-22.3Q343.32-22.3 342.02-21.35 340.72-20.4 339.92-18.93 339.12-17.45 338.82-15.9L338.82-15.9 350.22-15.9Q350.27-18 349.64-19.43 349.02-20.85 347.84-21.58 346.67-22.3 345.02-22.3ZM372.41-33.1L371.71-36.4 393.56-36.4 393.56-32.95 377.06-32.95 377.06-20.4 389.86-20.4 389.86-17 377.06-17 377.06-3.45 393.56-3.45 393.56 0 372.41 0 372.41-33.1ZM408.21-25.45L408.21-25.45Q412.16-25.45 414.16-23.3 416.16-21.15 416.16-17.25L416.16-17.25 416.16-4.8Q416.16-3.75 416.56-3.38 416.96-3 417.51-3L417.51-3Q417.96-3 418.46-3.13 418.96-3.25 419.41-3.45L419.41-3.45 420.31-0.75Q419.51-0.3 418.28 0.08 417.06 0.45 415.76 0.45L415.76 0.45Q414.46 0.45 413.41-0.28 412.36-1 412.11-2.95L412.11-2.95Q410.66-1.4 408.71-0.43 406.76 0.55 404.61 0.55L404.61 0.55Q401.66 0.55 399.71-1.2 397.76-2.95 397.76-6L397.76-6Q397.76-8.85 399.13-10.55 400.51-12.25 402.71-13.1 404.91-13.95 407.38-14.25 409.86-14.55 412.01-14.55L412.01-14.55 412.01-17.2Q412.01-19.3 411.16-20.75 410.31-22.2 407.86-22.2L407.86-22.2Q405.96-22.2 404.21-21.45 402.46-20.7 400.71-19.25L400.71-19.25 398.66-22.2Q400.71-23.85 403.16-24.65 405.61-25.45 408.21-25.45ZM412.01-9.7L412.01-11.3Q410.66-11.3 408.96-11.18 407.26-11.05 405.66-10.58 404.06-10.1 403.03-9.05 402.01-8 402.01-6.15L402.01-6.15Q402.01-4.5 403.13-3.73 404.26-2.95 405.96-2.95L405.96-2.95Q407.76-2.95 409.11-3.95 410.46-4.95 411.23-6.5 412.01-8.05 412.01-9.7L412.01-9.7ZM422.71-24.75L427.21-25.3Q428.11-23.1 428.36-20.65L428.36-20.65Q429.66-22.7 431.86-24 434.06-25.3 436.51-25.3L436.51-25.3 435.51-20.9Q433.11-20.9 431.43-19.65 429.76-18.4 428.46-16.5L428.46-16.5 428.46 0 424.31 0 424.31-18Q424.31-19 424.16-20.25 424.01-21.5 423.66-22.7 423.31-23.9 422.71-24.75L422.71-24.75ZM445.5-31.95L448.55-31.95Q448.2-30.25 447.93-28.43 447.65-26.6 447.55-24.85L447.55-24.85 454.05-24.85 453.2-21.7 447.55-21.7 447.55-5.8Q447.55-4.85 447.78-4.13 448-3.4 448.58-3.03 449.15-2.65 450.2-2.65L450.2-2.65Q451-2.65 451.8-2.8 452.6-2.95 453.35-3.15L453.35-3.15 454.05-0.35Q452.8 0 451.68 0.28 450.55 0.55 449.1 0.55L449.1 0.55Q445.9 0.55 444.65-1.15 443.4-2.85 443.4-5.9L443.4-5.9 443.4-21.7 439.7-21.7 439.7-24.2Q441.7-24.25 442.85-25.53 444-26.8 444.6-28.6 445.2-30.4 445.5-31.95L445.5-31.95ZM458.5-38.1L463.25-38.1 463.25-21.9Q464.85-23.4 466.7-24.45 468.55-25.5 470.8-25.5L470.8-25.5Q473.55-25.5 475.2-24.35 476.85-23.2 477.6-21.23 478.35-19.25 478.35-16.65L478.35-16.65 478.35 0 474.25 0 474.25-15.3Q474.25-16.85 474.03-18.32 473.8-19.8 472.95-20.8 472.1-21.8 470.1-21.8L470.1-21.8Q468.85-21.8 467.63-21.3 466.4-20.8 465.3-20.05 464.2-19.3 463.25-18.5L463.25-18.5 463.25 0 459.15 0 459.15-35.15 458.5-38.1Z" opacity="1" transform="matrix(1,0,0,1,0,0)" fill="#e1e9ec" class="undefined-text-1" data-fill-palette-color="secondary" id="text-1"></path></svg></g></svg></g></svg></g></svg></g></svg></g></svg><rect width="395.52" height="96.07296011266713" fill="none" stroke="none" visibility="hidden"></rect></g></svg></g></svg>