<svg xmlns="http://www.w3.org/2000/svg" version="1.1" xmlns:xlink="http://www.w3.org/1999/xlink" xmlns:svgjs="http://svgjs.dev/svgjs" width="2000" height="404" viewBox="0 0 2000 404"><g transform="matrix(1,0,0,1,-1.2121212121212466,0.23945800661911676)"><svg viewBox="0 0 396 80" data-background-color="#ffffff" preserveAspectRatio="xMidYMid meet" height="404" width="2000" xmlns="http://www.w3.org/2000/svg" xmlns:xlink="http://www.w3.org/1999/xlink"><defs></defs><g id="tight-bounds" transform="matrix(1,0,0,1,0.2400000000000091,-0.047417427053289884)"><svg viewBox="0 0 395.52 80.09483485410655" height="80.09483485410655" width="395.52"><g><svg viewBox="0 0 450.17808268328446 91.16337779999999" height="80.09483485410655" width="395.52"><g><svg viewBox="0 0 450.17808268328446 91.16337779999999" height="91.16337779999999" width="450.17808268328446"><g><svg viewBox="0 0 450.17808268328446 91.16337779999999" height="91.16337779999999" width="450.17808268328446"><g><svg viewBox="0 0 450.17808268328446 59.94689999999999" height="59.94689999999999" width="450.17808268328446"><g><svg><g></g><g></g></svg></g><g><svg><g><svg></svg></g><g></g></svg></g><g id="text-0"><svg viewBox="0 0 450.17808268328446 59.94689999999999" height="59.94689999999999" width="450.17808268328446"><g transform="matrix(1,0,0,1,0,11.698449999999998)"><svg width="147.54999999999998" viewBox="0.4 -36 147.54 36.55" height="36.55" data-palette-color="#f0f1f6"><path d="M17.75-10.35L17.75-10.35 17.75-32.05 12.8-33.1 12.8-36 28.2-36 28.2-33.1 24.25-32.05 24.25-10.9Q24.25-7.45 22.78-4.88 21.3-2.3 18.65-0.88 16 0.55 12.45 0.55L12.45 0.55Q8.9 0.55 6.18-0.6 3.45-1.75 1.93-3.78 0.4-5.8 0.4-8.5L0.4-8.5Q0.4-10.8 1.4-12.25 2.4-13.7 4.4-13.7L4.4-13.7Q6.15-13.7 7.25-12.7 8.35-11.7 8.35-10.05L8.35-10.05Q8.35-8.9 7.7-7.73 7.05-6.55 6.2-6.15L6.2-6.15Q6.45-4.85 7.9-3.98 9.35-3.1 12-3.1L12-3.1Q14.75-3.1 16.25-4.9 17.75-6.7 17.75-10.35ZM59.05-13.7L59.05-13.7 59.05-32.05 54.85-33.1 54.85-36 67.9-36 67.9-33.1 63.7-32.05 63.7-12.15Q63.7-5.95 59.97-2.7 56.25 0.55 49.05 0.55L49.05 0.55Q42.4 0.55 38.82-2.78 35.25-6.1 35.25-12.2L35.25-12.2 35.25-32.05 31.05-33.1 31.05-36 45.95-36 45.95-33.1 41.75-32.05 41.75-13.8Q41.75-2.95 50.15-2.95L50.15-2.95Q54.85-2.95 56.95-5.5 59.05-8.05 59.05-13.7ZM71.09-2.9L75.3-3.95 75.3-32.05 71.09-33.1 71.09-36 82.65-36 99.34-9.6 99.34-32.05 95.15-33.1 95.15-36 108.3-36 108.3-33.1 104.09-32.05 104.09 0 98.55 0 80.05-28.7 80.05-3.95 84.25-2.9 84.25 0 71.09 0 71.09-2.9ZM127.09-33.1L122.89-32.05 122.89-19.85 134.64-32.05 130.09-33.1 130.09-36 144.74-36 144.74-33.1 140.34-32.05 129.39-21.2 143.74-3.85 147.94-2.9 147.94 0 132.49 0 132.49-2.9 135.79-3.9 125.19-17 122.89-14.8 122.89-3.95 127.09-2.9 127.09 0 111.69 0 111.69-2.9 116.39-3.95 116.39-32.05 111.69-33.1 111.69-36 127.09-36 127.09-33.1Z" opacity="1" transform="matrix(1,0,0,1,0,0)" fill="#f0f1f6" class="undefined-dm-0"></path></svg></g><g><svg xmlns="http://www.w3.org/2000/svg" xmlns:xlink="http://www.w3.org/1999/xlink" version="1.1" x="161.70309999999998" y="0" viewBox="4.106 5.67 88.623 88.66" enable-background="new 4.106 5.67 88.622 88.66" xml:space="preserve" width="59.92188268328446" height="59.94689999999999" class="icon-fi-0" data-fill-palette-color="accent" id="fi-0"><path fill="#3ad1d1" d="M48.417 5.67c-6.721 0-13.088 1.505-18.795 4.184 0.004-0.022 0.014-0.041 0.016-0.064-0.576 0.268-1.146 0.548-1.711 0.841 0.029 0.009 0.063 0.012 0.094 0.019-0.104 0.055-0.211 0.106-0.314 0.162-0.01-0.017-0.024-0.027-0.032-0.044-0.327 0.172-0.653 0.343-0.974 0.523 0.032 0.006 0.061 0.015 0.092 0.021-0.342 0.191-0.682 0.385-1.018 0.585-0.018-0.014-0.036-0.022-0.053-0.037 0.191-0.112 0.379-0.228 0.57-0.337-0.193 0.112-0.389 0.223-0.581 0.337 0.001 0.001 0.003 0.002 0.004 0.003-0.08 0.048-0.161 0.096-0.241 0.144 0.037-0.004 0.057 0.01 0.089 0.013-0.173 0.104-0.341 0.214-0.512 0.32 0.012-0.035 0.019-0.066 0.032-0.102 0 0-0.001 0-0.002 0.001 0-0.001 0.001-0.002 0.001-0.003-0.031 0.02-0.063 0.041-0.097 0.061 0.019-0.012 0.037-0.022 0.057-0.033-0.068 0.043-0.138 0.086-0.207 0.129 0.021-0.014 0.041-0.027 0.062-0.04-0.194 0.12-0.39 0.241-0.582 0.365 0.128-0.082 0.258-0.161 0.387-0.24-0.129 0.082-0.256 0.166-0.385 0.25 0 0.024 0.005 0.053 0.006 0.078-0.012 0.008-0.024 0.016-0.037 0.024-0.012-0.019-0.02-0.041-0.035-0.058 0.021-0.014 0.041-0.028 0.062-0.042 0.002-0.004 0-0.008 0-0.011-0.023 0.015-0.047 0.031-0.071 0.047 0.003 0.001 0.004 0.005 0.005 0.008-1.219 0.79-2.399 1.634-3.532 2.538 0.009 0.026 0.024 0.05 0.034 0.074C10.608 23.51 4.106 35.992 4.106 50c0 24.482 19.839 44.33 44.311 44.33 24.472 0 44.312-19.848 44.312-44.33C92.729 25.517 72.889 5.67 48.417 5.67zM80.229 20.456c0.045 0.075 0.098 0.142 0.139 0.219-1.158 0.338-1.061-0.576-2.047-0.408 0.414 0.715 0.709 2.192 1.637 1.227 0.082 0.546 0.561 0.174 0.996-0.234 6.285 7.116 10.279 16.303 10.814 26.412-0.531 0-1.061 0-1.588 0 2.58 4.011-2.924 5.74-5.316 7.363 0.729 1.693 2.34-0.518 3.271 0.408-0.402 4.1-3.299 5.697-5.316 8.182 0.102 3.109 0.217 3.945 0 6.953-4.158 2.84-4.428 11.6-11.043 10.633-1.096-2.994-1.139-7.043-2.455-9.816 2.725-3.924-1.109-6.549-0.818-11.451-0.549-0.678-2.146-0.305-2.045-1.637-2.551 0.881-4.385 0.521-6.953 0.818-1.842-1.021-2.58-3.146-4.09-4.498 1.379-3.963-0.869-8.164 3.682-9.817-0.219-4.865 7.52-5.636 10.633-4.498 0 0.545 0 1.09 0 1.635 1.605 0.306 2.367 1.453 3.682 2.045-0.068-1.024 0.631-1.281 1.229-1.637 1.248 0.793 0.939 1.918 2.863 1.229 0.719 0.234 2.402-0.495 2.453 0.409 0.607-0.347 0.592-1.317 0.818-2.046-0.375-1.396-2.518-1.027-3.684-1.635-0.559-0.522-0.559-1.932 0-2.455-2.604-0.19-0.42 1.975-2.043 2.455-0.273 0-0.545 0-0.818 0 0.352-1.306-0.643-1.265-0.818-2.045-1.217-0.101-1.553 2.771-2.861 1.227 2.91-0.479-1.648-4.118-2.045-2.454-0.07-0.612 0.146-1.509-0.41-1.636-1.453 0.453-2.395 1.422-3.682 2.045 0 0.545 0 1.091 0 1.636-0.361 0.183-0.73 0.36-0.816 0.817-1.229 0-2.455 0-3.684 0-0.02-0.522-0.521-0.566-0.408-1.229 0.602-0.898-0.047-3.047 1.229-3.271 1.176-0.57 2.078 1.115 2.453 0 0.139 0 0.271 0 0.41 0 0.182-1.543-0.809-1.92-1.229-2.862 0.045-0.772 1.354-0.284 1.229-1.228 3.486-0.193 3.588-3.774 5.727-5.316-0.344 0.475-0.541 1.096-0.408 2.044 1.506 0.376 0.742-2.157 0.408-2.454-0.949-0.13-1.57 0.065-2.045 0.41-0.568-0.524-0.25-1.931-0.818-2.456 2.586-2.321 3.361-6.455 7.771-6.952 1.316 0.323 2.502 0.776 3.52 1.399C78.609 18.774 79.434 19.6 80.229 20.456zM61.955 25.176c2.131 0.459 1.541 3.642 3.273 4.499 0 0.271 0 0.545 0 0.818-0.984-0.167-0.889 0.748-2.045 0.41-0.773-0.092-0.902 0.459-1.635 0.408C63.203 29.135 61.076 27.336 61.955 25.176zM61.549 30.083c-0.684 0-1.363 0-2.047 0-0.162-1.525 0.328-2.4 1.637-2.454C61.611 28.113 61.602 29.076 61.549 30.083zM55.004 21.495c-0.361-0.864-1.246-1.209-1.229-2.454 1.637 0.401 2.457 0.401 4.092 0 0.078 0.331 0.412 0.408 0.408 0.817C58.219 21.438 56.678 21.534 55.004 21.495zM52.549 23.949c-0.627 1.69-2.622 2.012-4.089 2.862-0.464-0.076-0.229-0.41 0-0.408-0.062-0.756-1.385-0.252-1.637-0.818C46.412 20.586 52.996 19.426 52.549 23.949zM83.635 75.076c-1.025-3.143 1.238-4.395 2.453-6.953 1.209 0.971-0.492 2.475-0.408 3.68-0.441 0.758-0.992 1.41-1.209 2.396-0.016 0.021-0.029 0.045-0.045 0.068C83.99 74.363 83.811 74.717 83.635 75.076zM55.08 7.075c-0.027 0.035-0.039 0.062-0.074 0.1 0.258 0.053 0.564 0.056 0.885 0.045 0.686 0.119 1.365 0.253 2.039 0.404-0.66 0.301-0.838 1.085-1.693 1.187-0.297 1.25 0.416 1.491 0.406 2.454-0.703 0.161-1.049-0.606-1.227 0 1.404 1.81-2.008 3.385 0 4.908-2.979 1.521-7.176 1.823-8.999 4.499-0.884 1.023-1.29 2.527-2.454 3.271-2.918-0.84-3.482-5.656-2.604-7.504 0.084-0.061 0.144-0.146 0.146-0.263-0.053 0.079-0.101 0.167-0.146 0.262-0.215 0.151-0.596 0.103-0.668-0.266 1.918-5.429-4.68-3.837-5.727-6.953 0.682-0.545 2.604 0.149 2.454-1.227C37.36 8 37.309 8.015 37.25 8.022c3.563-0.946 7.304-1.457 11.164-1.457C50.682 6.565 52.906 6.74 55.08 7.075zM28.014 11.658c0.828 0.27 1.514 0.427 2.448-0.388-0.534-0.032-1.171 0.038-1.708 0.009 1.929-0.982 3.939-1.824 6.021-2.513-1.586 0.821-2.635 2.179-3.491 3.729-1.911 0.186-3.4 0.375-4.607-0.085C27.12 12.152 27.563 11.898 28.014 11.658zM26.051 12.769c0.092 0.197 0.266 0.312 0.733 0.133-0.435 0.927-1.24 1.486-2.454 1.636 0.304-0.4 0.436-0.716 0.504-0.999C25.237 13.278 25.639 13.016 26.051 12.769zM21.321 16.074c0.049 0.034 0.096 0.071 0.146 0.101-0.097 1.128-1.52 0.934-2.044 1.637 2.743 0.813 2.856-2.451 4.499-0.41 0.168-0.984-0.747-0.889-0.408-2.043 0.522-0.022 0.566-0.525 1.228-0.409 0.2 2.331 1.526 1.28 2.044 2.862 0.087-0.459 0.454-0.638 0.818-0.817 0.435-1.525-1.535-0.647-1.227-2.045 0.057-2.262 3.453-1.182 4.908-2.045 0.007 0.676 1.134 0.229 1.227 0.818-0.537-0.053-2.959-0.062-1.636 0.409 4.175-0.328 4.11 2.779 6.544 4.909-0.804-0.123-0.812 0.552-1.229 0.816-0.543 0.062-1.233-1.662-1.635-0.407 0.895 0.06 0.879 1.03 0.817 2.045-2.028-0.667-0.231 0.049-1.228 0.817-1.527-0.791-2.703-1.933-4.5-2.455 1.004-0.358 2.358-0.367 2.455-1.635 0.304-1.26-1.125-0.785-0.818-2.045-0.6 0.004-3.348-0.154-2.045 0.41 0.336 1.834-1.174 1.826-1.637 2.863 0.6 0.355 1.297 0.613 1.228 1.636-0.329-0.216-0.664-0.426-1.228-0.409-0.515 0.102-0.412 0.814 0 0.818-0.074 0.691-1.943-0.189-1.637-1.227-1.938 0.65-2.891 2.289-4.089 3.681 0.351 1.558 1.907 1.911 3.271 2.454 0.33 0.217 0.666 0.427 1.229 0.408-0.296 1.251 0.418 1.49 0.408 2.454 1.395-3.288 2.595-2.441 2.455-7.771 0.348 0.074 0.386-0.16 0.408-0.409 0.402-0.035 0.972 1.08 2.455 0.817 1.039 0.324 0.221 2.506 1.635 2.455 1.324 0.506 0.312-1.323 1.637-0.819 1.281 3.818 3.506 5.762 4.09 9.408-1.25 0.296-1.49-0.418-2.453-0.408-1.43 0.365-0.699-1.334-0.41-1.637 0.588-0.229 0.998-0.639 1.228-1.228-1.542 0.388-2.771 2.538-4.09 0.818 0.338 1.155-0.576 1.06-0.409 2.045-0.076 0.348 0.159 0.386 0.409 0.409 0.317 0.091 0.808 0.01 0.817 0.408 0 0.138 0 0.272 0 0.41-1.945 1.258-7.017 2.709-7.771 7.362-1.199 0.026-1.519 0.935-2.044 1.636-0.867 0.365 0.809 2.861-0.41 3.682-0.989-0.512-1.322-1.678-1.637-2.863-3.719-2.158-10.463 4.661-4.09 6.136 0.137 0 0.273 0 0.41 0-0.148-1.297 2.244-1.832 2.452-0.409-0.606 0.348-0.879 1.028-0.817 2.043-0.069 0.889 1.451 0.188 2.045 0.41-0.115 1.812-0.868 3.379 1.227 3.68 0.318 0.092 0.809 0.012 0.819 0.41 1.606-0.166 1.747-1.797 3.272-2.045 0.916 0.85 2.641 1.199 5.316 1.227 0.574 2.562 3.68 2.592 5.316 4.092 0 0.68 0 1.361 0 2.045 2.922 0.76 5.078 2.285 7.771 3.27-0.385 3.844-2.917 5.537-2.861 9.818-1.1 0.539-2.176 1.098-3.273 1.635-0.379 2.689-2.146 5.939-4.5 5.316-0.167 0.986 0.748 0.889 0.408 2.047-4.189 1.184-3.257 3.732-3.928 7.059-1.065-0.428-2.11-0.893-3.133-1.4-1.623-3.189 1.092-9.072 0.112-14.887-0.763-4.531-7.209-7.143-6.065-12.537 0.729-0.889 1.577-1.658 2.021-2.832-2.943-4.334-8.721-5.838-12.94-8.896 0.118-2.275-0.71-3.604-2.022-4.448 0.068 1.146 0.742 1.685 0.811 2.83-2.847-2.78-3.883-7.165-4.004-11.327C9.67 28.554 14.706 21.369 21.321 16.074zM29.645 49.717c0.141 1.755-1.49 1.105-2.453 0.818C27.567 49.82 28.469 49.631 29.645 49.717zM22.283 48.08c1.108-1.787 3.901 0.715 4.909 1.638C24.965 49.761 24.634 47.909 22.283 48.08z" data-fill-palette-color="accent"></path></svg></g><g transform="matrix(1,0,0,1,235.77808268328442,11.198449999999994)"><svg width="214.4" viewBox="2.05 -36.5 214.39 37" height="37" data-palette-color="#f0f1f6"><path d="M31.2-27.35L31.2-27.35Q31.2-25.45 30.33-23.8 29.45-22.15 27.95-21.05 26.45-19.95 24.5-19.7L24.5-19.7 24.5-19.5Q28.4-18.7 30.65-16.2 32.9-13.7 32.9-10.05L32.9-10.05Q32.9-7.25 31.43-4.88 29.95-2.5 27.7-1.35L27.7-1.35Q26.3-0.65 24.25-0.33 22.2 0 18.5 0L18.5 0 2.05 0 2.05-2.9 6.25-3.95 6.25-32.05 2.05-33.1 2.05-36 20.35-36Q25.6-36 28.45-33.45L28.45-33.45Q29.75-32.25 30.48-30.65 31.2-29.05 31.2-27.35ZM17.65-16.95L17.65-16.95 12.75-16.95 12.75-3.75 16.75-3.75Q19.05-3.75 20.45-4 21.85-4.25 22.8-4.8L22.8-4.8Q24.15-5.5 25-7.03 25.85-8.55 25.85-10.55L25.85-10.55Q25.85-12.3 25.2-13.5 24.55-14.7 23.55-15.5L23.55-15.5Q22.65-16.2 21.25-16.57 19.85-16.95 17.65-16.95ZM17.7-32.35L12.75-32.35 12.75-20.6 17.5-20.6Q21-20.6 22.65-22.35L22.65-22.35Q23.4-23.05 23.95-24.13 24.5-25.2 24.5-26.6L24.5-26.6Q24.5-28 23.95-29.1 23.4-30.2 22.65-30.85L22.65-30.85Q21.15-32.35 17.7-32.35L17.7-32.35ZM62.9-19.1L62.9-19.1Q62-18.4 60.87-17.75 59.75-17.1 58-16.7L58-16.7Q58.25-16.45 58.8-15.83 59.35-15.2 59.85-14.35L59.85-14.35 66.05-3.85 70.5-2.9 70.5 0 58.7 0 58.7-2.9 52.15-15.75 47.35-15.75 47.35-3.95 52.1-2.9 52.1 0 36.65 0 36.65-2.9 40.85-3.95 40.85-32.05 36.65-33.1 36.65-36 55.35-36Q57.75-36 59.57-35.55 61.4-35.1 62.8-34.1L62.8-34.1Q64.6-32.85 65.65-30.78 66.7-28.7 66.7-26.6L66.7-26.6Q66.7-24.5 65.67-22.48 64.65-20.45 62.9-19.1ZM47.35-32.35L47.35-19.4 53-19.4Q55.75-19.4 57.55-20.95L57.55-20.95Q58.55-21.8 59.12-23.23 59.7-24.65 59.7-26.3L59.7-26.3Q59.7-27.8 59.1-29.03 58.5-30.25 57.5-31.05L57.5-31.05Q56.65-31.75 55.52-32.05 54.4-32.35 52.8-32.35L52.8-32.35 47.35-32.35ZM106.65-18.4L106.65-18.4Q106.65-14.25 105.45-10.4 104.25-6.55 101.65-3.85L101.65-3.85Q99.5-1.65 96.5-0.58 93.5 0.5 89.3 0.5L89.3 0.5Q85.1 0.5 82.1-0.55 79.1-1.6 77.05-3.7L77.05-3.7Q74.9-5.95 73.57-9.58 72.25-13.2 72.25-17.6L72.25-17.6Q72.25-21.95 73.57-25.78 74.9-29.6 77.25-32.15L77.25-32.15Q79.35-34.4 82.3-35.45 85.25-36.5 89.45-36.5L89.45-36.5Q93.45-36.5 96.5-35.5 99.55-34.5 101.8-32.3L101.8-32.3Q104.4-29.7 105.52-26.03 106.65-22.35 106.65-18.4ZM79.5-18.55L79.5-18.55Q79.5-14.65 80.22-11.65 80.95-8.65 82.2-6.75L82.2-6.75Q83.4-4.9 85.2-3.95 87-3 89.6-3L89.6-3Q94.3-3 96.7-6.3L96.7-6.3Q98-8.05 98.7-10.9 99.4-13.75 99.4-17.7L99.4-17.7Q99.4-21.65 98.67-24.58 97.95-27.5 96.65-29.35L96.65-29.35Q95.35-31.25 93.47-32.15 91.6-33.05 89.25-33.05L89.25-33.05Q86.9-33.05 85.17-32.18 83.45-31.3 82.3-29.75L82.3-29.75Q79.5-26.05 79.5-18.55ZM125.49-33.1L121.29-32.05 121.29-19.85 133.04-32.05 128.49-33.1 128.49-36 143.14-36 143.14-33.1 138.74-32.05 127.79-21.2 142.14-3.85 146.34-2.9 146.34 0 130.89 0 130.89-2.9 134.19-3.9 123.59-17 121.29-14.8 121.29-3.95 125.49-2.9 125.49 0 110.09 0 110.09-2.9 114.79-3.95 114.79-32.05 110.09-33.1 110.09-36 125.49-36 125.49-33.1ZM170.39-25.1L170.39-11.9 166.34-11.9 165.49-16.6 158.64-16.6 158.64-3.75 172.39-3.75 173.79-11.15 178.19-11.15 178.19 0 147.44 0 147.44-2.9 152.14-3.95 152.14-32.05 147.44-33.1 147.44-36 177.09-36 177.09-25.4 172.99-25.4 171.54-32.35 158.64-32.35 158.64-20.35 165.49-20.35 166.34-25.1 170.39-25.1ZM208.84-19.1L208.84-19.1Q207.94-18.4 206.81-17.75 205.69-17.1 203.94-16.7L203.94-16.7Q204.19-16.45 204.74-15.83 205.29-15.2 205.79-14.35L205.79-14.35 211.99-3.85 216.44-2.9 216.44 0 204.64 0 204.64-2.9 198.09-15.75 193.29-15.75 193.29-3.95 198.04-2.9 198.04 0 182.59 0 182.59-2.9 186.79-3.95 186.79-32.05 182.59-33.1 182.59-36 201.29-36Q203.69-36 205.51-35.55 207.34-35.1 208.74-34.1L208.74-34.1Q210.54-32.85 211.59-30.78 212.64-28.7 212.64-26.6L212.64-26.6Q212.64-24.5 211.61-22.48 210.59-20.45 208.84-19.1ZM193.29-32.35L193.29-19.4 198.94-19.4Q201.69-19.4 203.49-20.95L203.49-20.95Q204.49-21.8 205.06-23.23 205.64-24.65 205.64-26.3L205.64-26.3Q205.64-27.8 205.04-29.03 204.44-30.25 203.44-31.05L203.44-31.05Q202.59-31.75 201.46-32.05 200.34-32.35 198.74-32.35L198.74-32.35 193.29-32.35Z" opacity="1" transform="matrix(1,0,0,1,0,0)" fill="#f0f1f6" class="undefined-dm-1"></path></svg></g></svg></g></svg></g><g transform="matrix(1,0,0,1,114.84183649315739,68.57547779999999)"><svg viewBox="0 0 220.49440969696968 22.587899999999998" height="22.587899999999998" width="220.49440969696968"><g transform="matrix(1,0,0,1,0,0)"><svg width="220.49440969696968" viewBox="0.2 -38.45 483.15000000000003 49.5" height="22.587899999999998" data-palette-color="#e1e9ec"><path d="M13.9-37.2L13.9-37.2Q16.7-37.2 19.38-36.43 22.05-35.65 24.2-34.2L24.2-34.2 20.75-29.9Q19.4-31.1 17.5-31.75 15.6-32.4 13.85-32.4L13.85-32.4Q11.9-32.4 10.3-31.38 8.7-30.35 8.7-28.2L8.7-28.2Q8.7-26.75 9.43-25.7 10.15-24.65 11.38-23.88 12.6-23.1 14.1-22.35L14.1-22.35Q15.85-21.5 17.73-20.6 19.6-19.7 21.2-18.43 22.8-17.15 23.8-15.3 24.8-13.45 24.8-10.75L24.8-10.75Q24.8-7.1 23-4.55 21.2-2 18.28-0.7 15.35 0.6 11.95 0.6L11.95 0.6Q8.9 0.6 5.88-0.08 2.85-0.75 0.2-2.3L0.2-2.3 2.55-7.85Q4.3-6.25 6.6-5.23 8.9-4.2 11.3-4.2L11.3-4.2Q12.9-4.2 14.3-4.8 15.7-5.4 16.6-6.58 17.5-7.75 17.5-9.5L17.5-9.5Q17.5-11.3 16.5-12.48 15.5-13.65 13.9-14.55 12.3-15.45 10.45-16.3L10.45-16.3Q8.8-17.05 7.2-17.93 5.6-18.8 4.3-19.95 3-21.1 2.2-22.78 1.4-24.45 1.4-26.75L1.4-26.75Q1.4-30.4 3.2-32.7 5-35 7.85-36.1 10.7-37.2 13.9-37.2ZM38.5-25.45L38.5-25.45Q42.5-25.45 44.67-23.43 46.85-21.4 46.85-17.35L46.85-17.35 46.85-6.4Q46.85-4.95 47.3-4.45 47.75-3.95 48.45-3.95L48.45-3.95Q48.95-3.95 49.42-4.05 49.9-4.15 50.4-4.35L50.4-4.35 51.35-0.95Q50.25-0.35 48.85 0.03 47.45 0.4 46.3 0.4L46.3 0.4Q44.5 0.4 43.4-0.35 42.3-1.1 41.85-2.95L41.85-2.95Q40.45-1 38.57-0.23 36.7 0.55 34.35 0.55L34.35 0.55Q31.45 0.55 29.37-1.13 27.3-2.8 27.3-5.85L27.3-5.85Q27.3-8.55 28.57-10.28 29.85-12 31.9-12.93 33.95-13.85 36.32-14.2 38.7-14.55 40.85-14.55L40.85-14.55 40.85-17.8Q40.85-19.8 40-20.55 39.15-21.3 37.25-21.3L37.25-21.3Q35.55-21.3 33.85-20.35 32.15-19.4 30.85-18.4L30.85-18.4 28.4-22.35Q30.65-23.9 33.22-24.68 35.8-25.45 38.5-25.45ZM40.85-9.3L40.85-10.45Q39.8-10.45 38.55-10.35 37.3-10.25 36.15-9.85 35-9.45 34.27-8.65 33.55-7.85 33.55-6.45L33.55-6.45Q33.55-5.3 34.47-4.67 35.4-4.05 36.45-4.05L36.45-4.05Q37.85-4.05 38.82-4.85 39.8-5.65 40.32-6.88 40.85-8.1 40.85-9.3L40.85-9.3ZM50.4-24.85L56.85-24.85 61.4-11.75Q61.8-10.7 62.02-9.68 62.25-8.65 62.45-7.55L62.45-7.55Q62.65-8.6 62.8-9.68 62.95-10.75 63.3-11.75L63.3-11.75 67.95-24.85 73.34-24.85 64.55 0.2 59.15 0.2 50.4-24.85ZM85.59-25.55L85.59-25.55Q89.04-25.55 91.27-24.05 93.49-22.55 94.57-20.18 95.64-17.8 95.64-15.1L95.64-15.1Q95.64-14.3 95.54-13.43 95.44-12.55 95.19-11.7L95.19-11.7 79.99-11.7Q79.99-7.7 81.89-5.58 83.79-3.45 86.84-3.45L86.84-3.45Q88.29-3.45 89.97-3.95 91.64-4.45 93.44-5.5L93.44-5.5 95.04-2.1Q93.34-0.75 90.77-0.1 88.19 0.55 86.14 0.55L86.14 0.55Q82.24 0.55 79.44-1.05 76.64-2.65 75.14-5.53 73.64-8.4 73.64-12.25L73.64-12.25Q73.64-14.9 74.44-17.28 75.24-19.65 76.79-21.53 78.34-23.4 80.57-24.48 82.79-25.55 85.59-25.55ZM85.34-21.45L85.34-21.45Q83.69-21.45 82.57-20.55 81.44-19.65 80.84-18.3 80.24-16.95 80.14-15.65L80.14-15.65 89.39-15.65Q89.64-17.1 89.24-18.43 88.84-19.75 87.84-20.6 86.84-21.45 85.34-21.45ZM111.19-36.6L120.79-36.6 128.59-15.6Q129.14-14.1 129.44-12.6 129.74-11.1 130.04-9.55L130.04-9.55Q130.44-11.15 130.66-12.55 130.89-13.95 131.39-15.4L131.39-15.4 139.04-36.6 147.84-36.6 147.84-0.05 141.09-0.05 141.09-24.85Q141.09-25.75 141.19-26.68 141.29-27.6 141.34-28.45L141.34-28.45Q141.04-27.55 140.76-26.65 140.49-25.75 140.14-24.85L140.14-24.85 131.19 0 127.49 0 118.29-24.85Q117.94-25.75 117.66-26.65 117.39-27.55 117.09-28.45L117.09-28.45Q117.14-27.6 117.24-26.68 117.34-25.75 117.34-24.85L117.34-24.85 117.34-0.05 111.89-0.05 111.89-33.55 111.19-36.6ZM163.69 0.6L163.69 0.6Q159.94 0.6 157.26-1.13 154.59-2.85 153.16-5.78 151.74-8.7 151.74-12.3L151.74-12.3Q151.74-15.9 153.24-18.9 154.74-21.9 157.51-23.7 160.28-25.5 163.99-25.5L163.99-25.5Q167.78-25.5 170.44-23.78 173.09-22.05 174.51-19.13 175.94-16.2 175.94-12.6L175.94-12.6Q175.94-9 174.44-6 172.94-3 170.21-1.2 167.49 0.6 163.69 0.6ZM163.74-3.4L163.74-3.4Q165.49-3.4 166.59-4.28 167.69-5.15 168.28-6.53 168.88-7.9 169.11-9.47 169.34-11.05 169.34-12.4L169.34-12.4Q169.34-13.8 169.16-15.38 168.99-16.95 168.44-18.32 167.88-19.7 166.81-20.55 165.74-21.4 163.94-21.4L163.94-21.4Q162.24-21.4 161.13-20.5 160.03-19.6 159.44-18.2 158.84-16.8 158.59-15.25 158.34-13.7 158.34-12.4L158.34-12.4Q158.34-11.05 158.53-9.5 158.74-7.95 159.28-6.55 159.84-5.15 160.91-4.28 161.99-3.4 163.74-3.4ZM179.38-24.65L185.68-25.4Q186.03-24.65 186.23-23.83 186.43-23 186.53-22.2L186.53-22.2Q188.03-23.55 190.06-24.55 192.08-25.55 194.13-25.55L194.13-25.55Q197.03-25.55 198.63-24.45 200.23-23.35 200.88-21.38 201.53-19.4 201.53-16.8L201.53-16.8 201.53 0 195.48 0 195.48-16.2Q195.48-17.35 195.31-18.4 195.13-19.45 194.46-20.13 193.78-20.8 192.33-20.8L192.33-20.8Q191.58-20.8 190.51-20.35 189.43-19.9 188.46-19.28 187.48-18.65 186.93-18.05L186.93-18.05 186.93 0 180.93 0 180.93-17.8Q180.93-18.7 180.81-20.03 180.68-21.35 180.33-22.65 179.98-23.95 179.38-24.65L179.38-24.65ZM217.83-25.55L217.83-25.55Q221.28-25.55 223.51-24.05 225.73-22.55 226.81-20.18 227.88-17.8 227.88-15.1L227.88-15.1Q227.88-14.3 227.78-13.43 227.68-12.55 227.43-11.7L227.43-11.7 212.23-11.7Q212.23-7.7 214.13-5.58 216.03-3.45 219.08-3.45L219.08-3.45Q220.53-3.45 222.21-3.95 223.88-4.45 225.68-5.5L225.68-5.5 227.28-2.1Q225.58-0.75 223.01-0.1 220.43 0.55 218.38 0.55L218.38 0.55Q214.48 0.55 211.68-1.05 208.88-2.65 207.38-5.53 205.88-8.4 205.88-12.25L205.88-12.25Q205.88-14.9 206.68-17.28 207.48-19.65 209.03-21.53 210.58-23.4 212.81-24.48 215.03-25.55 217.83-25.55ZM217.58-21.45L217.58-21.45Q215.93-21.45 214.81-20.55 213.68-19.65 213.08-18.3 212.48-16.95 212.38-15.65L212.38-15.65 221.63-15.65Q221.88-17.1 221.48-18.43 221.08-19.75 220.08-20.6 219.08-21.45 217.58-21.45ZM229.18-24.85L235.63-24.85Q236.83-21.4 238.1-17.98 239.38-14.55 240.48-11.05L240.48-11.05Q240.73-10.2 240.85-9.2 240.98-8.2 241.18-7.3L241.18-7.3Q241.33-8.2 241.48-9.2 241.63-10.2 241.88-11.05L241.88-11.05Q242.98-14.55 244.23-17.98 245.48-21.4 246.68-24.85L246.68-24.85 252.18-24.85 243.33 0.15Q242.68 2 241.73 3.93 240.78 5.85 239.48 7.48 238.18 9.1 236.45 10.08 234.73 11.05 232.48 11.05L232.48 11.05 230.63 11.05 230.63 6.8Q230.93 6.85 231.25 6.9 231.58 6.95 231.93 6.95L231.93 6.95Q233.83 6.95 235.03 5.83 236.23 4.7 236.98 3.05 237.73 1.4 238.18-0.05L238.18-0.05 229.18-24.85ZM277.47-37.2L277.47-37.2Q280.27-37.2 282.95-36.43 285.62-35.65 287.77-34.2L287.77-34.2 284.32-29.9Q282.97-31.1 281.07-31.75 279.17-32.4 277.42-32.4L277.42-32.4Q275.47-32.4 273.87-31.38 272.27-30.35 272.27-28.2L272.27-28.2Q272.27-26.75 273-25.7 273.72-24.65 274.95-23.88 276.17-23.1 277.67-22.35L277.67-22.35Q279.42-21.5 281.3-20.6 283.17-19.7 284.77-18.43 286.37-17.15 287.37-15.3 288.37-13.45 288.37-10.75L288.37-10.75Q288.37-7.1 286.57-4.55 284.77-2 281.85-0.7 278.92 0.6 275.52 0.6L275.52 0.6Q272.47 0.6 269.45-0.08 266.42-0.75 263.77-2.3L263.77-2.3 266.12-7.85Q267.87-6.25 270.17-5.23 272.47-4.2 274.87-4.2L274.87-4.2Q276.47-4.2 277.87-4.8 279.27-5.4 280.17-6.58 281.07-7.75 281.07-9.5L281.07-9.5Q281.07-11.3 280.07-12.48 279.07-13.65 277.47-14.55 275.87-15.45 274.02-16.3L274.02-16.3Q272.37-17.05 270.77-17.93 269.17-18.8 267.87-19.95 266.57-21.1 265.77-22.78 264.97-24.45 264.97-26.75L264.97-26.75Q264.97-30.4 266.77-32.7 268.57-35 271.42-36.1 274.27-37.2 277.47-37.2ZM302.07-25.45L302.07-25.45Q306.07-25.45 308.25-23.43 310.42-21.4 310.42-17.35L310.42-17.35 310.42-6.4Q310.42-4.95 310.87-4.45 311.32-3.95 312.02-3.95L312.02-3.95Q312.52-3.95 313-4.05 313.47-4.15 313.97-4.35L313.97-4.35 314.92-0.95Q313.82-0.35 312.42 0.03 311.02 0.4 309.87 0.4L309.87 0.4Q308.07 0.4 306.97-0.35 305.87-1.1 305.42-2.95L305.42-2.95Q304.02-1 302.15-0.23 300.27 0.55 297.92 0.55L297.92 0.55Q295.02 0.55 292.95-1.13 290.87-2.8 290.87-5.85L290.87-5.85Q290.87-8.55 292.15-10.28 293.42-12 295.47-12.93 297.52-13.85 299.9-14.2 302.27-14.55 304.42-14.55L304.42-14.55 304.42-17.8Q304.42-19.8 303.57-20.55 302.72-21.3 300.82-21.3L300.82-21.3Q299.12-21.3 297.42-20.35 295.72-19.4 294.42-18.4L294.42-18.4 291.97-22.35Q294.22-23.9 296.8-24.68 299.37-25.45 302.07-25.45ZM304.42-9.3L304.42-10.45Q303.37-10.45 302.12-10.35 300.87-10.25 299.72-9.85 298.57-9.45 297.85-8.65 297.12-7.85 297.12-6.45L297.12-6.45Q297.12-5.3 298.05-4.67 298.97-4.05 300.02-4.05L300.02-4.05Q301.42-4.05 302.4-4.85 303.37-5.65 303.9-6.88 304.42-8.1 304.42-9.3L304.42-9.3ZM313.97-24.85L320.42-24.85 324.97-11.75Q325.37-10.7 325.59-9.68 325.82-8.65 326.02-7.55L326.02-7.55Q326.22-8.6 326.37-9.68 326.52-10.75 326.87-11.75L326.87-11.75 331.52-24.85 336.92-24.85 328.12 0.2 322.72 0.2 313.97-24.85ZM349.17-25.55L349.17-25.55Q352.62-25.55 354.84-24.05 357.07-22.55 358.14-20.18 359.22-17.8 359.22-15.1L359.22-15.1Q359.22-14.3 359.12-13.43 359.02-12.55 358.77-11.7L358.77-11.7 343.57-11.7Q343.57-7.7 345.47-5.58 347.37-3.45 350.42-3.45L350.42-3.45Q351.87-3.45 353.54-3.95 355.22-4.45 357.02-5.5L357.02-5.5 358.62-2.1Q356.92-0.75 354.34-0.1 351.77 0.55 349.72 0.55L349.72 0.55Q345.82 0.55 343.02-1.05 340.22-2.65 338.72-5.53 337.22-8.4 337.22-12.25L337.22-12.25Q337.22-14.9 338.02-17.28 338.82-19.65 340.37-21.53 341.92-23.4 344.14-24.48 346.37-25.55 349.17-25.55ZM348.92-21.45L348.92-21.45Q347.27-21.45 346.14-20.55 345.02-19.65 344.42-18.3 343.82-16.95 343.72-15.65L343.72-15.65 352.97-15.65Q353.22-17.1 352.82-18.43 352.42-19.75 351.42-20.6 350.42-21.45 348.92-21.45ZM375.46-33.55L374.71-36.6 397.71-36.6 397.71-31.65 382.31-31.65 382.31-21.3 394.11-21.3 394.11-16.35 382.31-16.35 382.31-4.95 397.71-4.95 397.71 0 375.46 0 375.46-33.55ZM412.26-25.45L412.26-25.45Q416.26-25.45 418.43-23.43 420.61-21.4 420.61-17.35L420.61-17.35 420.61-6.4Q420.61-4.95 421.06-4.45 421.51-3.95 422.21-3.95L422.21-3.95Q422.71-3.95 423.18-4.05 423.66-4.15 424.16-4.35L424.16-4.35 425.11-0.95Q424.01-0.35 422.61 0.03 421.21 0.4 420.06 0.4L420.06 0.4Q418.26 0.4 417.16-0.35 416.06-1.1 415.61-2.95L415.61-2.95Q414.21-1 412.33-0.23 410.46 0.55 408.11 0.55L408.11 0.55Q405.21 0.55 403.13-1.13 401.06-2.8 401.06-5.85L401.06-5.85Q401.06-8.55 402.33-10.28 403.61-12 405.66-12.93 407.71-13.85 410.08-14.2 412.46-14.55 414.61-14.55L414.61-14.55 414.61-17.8Q414.61-19.8 413.76-20.55 412.91-21.3 411.01-21.3L411.01-21.3Q409.31-21.3 407.61-20.35 405.91-19.4 404.61-18.4L404.61-18.4 402.16-22.35Q404.41-23.9 406.98-24.68 409.56-25.45 412.26-25.45ZM414.61-9.3L414.61-10.45Q413.56-10.45 412.31-10.35 411.06-10.25 409.91-9.85 408.76-9.45 408.03-8.65 407.31-7.85 407.31-6.45L407.31-6.45Q407.31-5.3 408.23-4.67 409.16-4.05 410.21-4.05L410.21-4.05Q411.61-4.05 412.58-4.85 413.56-5.65 414.08-6.88 414.61-8.1 414.61-9.3L414.61-9.3ZM426.06-24.85L432.41-25.35Q433.51-22.85 433.61-20.1L433.61-20.1Q434.86-22.2 437.11-23.78 439.36-25.35 441.86-25.35L441.86-25.35 440.86-19.4Q438.66-19.4 436.93-18.28 435.21-17.15 433.66-14.8L433.66-14.8 433.66 0 427.66 0 427.66-18.15Q427.66-19.1 427.51-20.38 427.36-21.65 427.01-22.85 426.66-24.05 426.06-24.85L426.06-24.85ZM449.9-32.1L454.15-32.1Q453.8-30.35 453.55-28.5 453.3-26.65 453.25-24.85L453.25-24.85 459.3-24.85 458.35-20.9 453.25-20.9 453.25-7.15Q453.25-6.6 453.35-5.8 453.45-5 453.9-4.4 454.35-3.8 455.35-3.8L455.35-3.8Q456.2-3.8 457-3.95 457.8-4.1 458.6-4.3L458.6-4.3 459.3-0.55Q458-0.15 456.38 0.18 454.75 0.5 453.4 0.5L453.4 0.5Q450.2 0.5 448.68-1 447.15-2.5 447.15-5.8L447.15-5.8 447.15-20.9 443.05-20.9 443.05-24.2Q445.1-24.25 446.48-25.5 447.85-26.75 448.7-28.58 449.55-30.4 449.9-32.1L449.9-32.1ZM462.2-38.45L468.75-38.45 468.75-22.5Q470.2-23.7 472.1-24.63 474-25.55 475.95-25.55L475.95-25.55Q478.85-25.55 480.45-24.45 482.05-23.35 482.7-21.38 483.35-19.4 483.35-16.8L483.35-16.8 483.35 0 477.3 0 477.3-16.2Q477.3-17.35 477.13-18.4 476.95-19.45 476.28-20.13 475.6-20.8 474.15-20.8L474.15-20.8Q473.4-20.8 472.33-20.35 471.25-19.9 470.28-19.28 469.3-18.65 468.75-18.05L468.75-18.05 468.75 0 462.8 0 462.8-35.75 462.2-38.45Z" opacity="1" transform="matrix(1,0,0,1,0,0)" fill="#e1e9ec" class="undefined-text-1" data-fill-palette-color="secondary" id="text-1"></path></svg></g></svg></g></svg></g></svg></g></svg></g></svg><rect width="395.52" height="80.09483485410655" fill="none" stroke="none" visibility="hidden"></rect></g></svg></g></svg>